<?xml version="1.0" standalone="no"?>
<svg xmlns:xlink="http://www.w3.org/1999/xlink" id="wave" style="transform:rotate(180deg); transition: 0.3s" viewBox="0 0 1440 490" version="1.1" xmlns="http://www.w3.org/2000/svg"><defs><linearGradient id="sw-gradient-0" x1="0" x2="0" y1="1" y2="0"><stop stop-color="rgba(33, 37, 41, 1)" offset="0%"/><stop stop-color="rgba(246.718, 104.986, 0, 1)" offset="100%"/></linearGradient></defs><path style="transform:translate(0, 0px); opacity:1" fill="url(#sw-gradient-0)" d="M0,147L40,171.5C80,196,160,245,240,220.5C320,196,400,98,480,65.3C560,33,640,65,720,106.2C800,147,880,196,960,179.7C1040,163,1120,82,1200,98C1280,114,1360,229,1440,253.2C1520,278,1600,212,1680,163.3C1760,114,1840,82,1920,114.3C2000,147,2080,245,2160,269.5C2240,294,2320,245,2400,187.8C2480,131,2560,65,2640,40.8C2720,16,2800,33,2880,57.2C2960,82,3040,114,3120,106.2C3200,98,3280,49,3360,81.7C3440,114,3520,229,3600,294C3680,359,3760,376,3840,318.5C3920,261,4000,131,4080,73.5C4160,16,4240,33,4320,57.2C4400,82,4480,114,4560,171.5C4640,229,4720,310,4800,326.7C4880,343,4960,294,5040,228.7C5120,163,5200,82,5280,57.2C5360,33,5440,65,5520,81.7C5600,98,5680,98,5720,98L5760,98L5760,490L5720,490C5680,490,5600,490,5520,490C5440,490,5360,490,5280,490C5200,490,5120,490,5040,490C4960,490,4880,490,4800,490C4720,490,4640,490,4560,490C4480,490,4400,490,4320,490C4240,490,4160,490,4080,490C4000,490,3920,490,3840,490C3760,490,3680,490,3600,490C3520,490,3440,490,3360,490C3280,490,3200,490,3120,490C3040,490,2960,490,2880,490C2800,490,2720,490,2640,490C2560,490,2480,490,2400,490C2320,490,2240,490,2160,490C2080,490,2000,490,1920,490C1840,490,1760,490,1680,490C1600,490,1520,490,1440,490C1360,490,1280,490,1200,490C1120,490,1040,490,960,490C880,490,800,490,720,490C640,490,560,490,480,490C400,490,320,490,240,490C160,490,80,490,40,490L0,490Z"/></svg>