<?xml version="1.0" standalone="no"?>
<svg xmlns:xlink="http://www.w3.org/1999/xlink" id="wave" style="transform:rotate(180deg); transition: 0.3s" viewBox="0 0 1440 490" version="1.1" xmlns="http://www.w3.org/2000/svg"><defs><linearGradient id="sw-gradient-0" x1="0" x2="0" y1="1" y2="0"><stop stop-color="rgba(29, 35, 38, 1)" offset="0%"/><stop stop-color="rgba(29, 35, 38, 0.93)" offset="100%"/></linearGradient></defs><path style="transform:translate(0, 0px); opacity:1" fill="url(#sw-gradient-0)" d="M0,245L34.3,204.2C68.6,163,137,82,206,40.8C274.3,0,343,0,411,40.8C480,82,549,163,617,163.3C685.7,163,754,82,823,49C891.4,16,960,33,1029,98C1097.1,163,1166,278,1234,294C1302.9,310,1371,229,1440,187.8C1508.6,147,1577,147,1646,187.8C1714.3,229,1783,310,1851,294C1920,278,1989,163,2057,171.5C2125.7,180,2194,310,2263,375.7C2331.4,441,2400,441,2469,408.3C2537.1,376,2606,310,2674,253.2C2742.9,196,2811,147,2880,147C2948.6,147,3017,196,3086,204.2C3154.3,212,3223,180,3291,179.7C3360,180,3429,212,3497,245C3565.7,278,3634,310,3703,294C3771.4,278,3840,212,3909,155.2C3977.1,98,4046,49,4114,49C4182.9,49,4251,98,4320,163.3C4388.6,229,4457,310,4526,334.8C4594.3,359,4663,327,4731,277.7C4800,229,4869,163,4903,130.7L4937.1,98L4937.1,490L4902.9,490C4868.6,490,4800,490,4731,490C4662.9,490,4594,490,4526,490C4457.1,490,4389,490,4320,490C4251.4,490,4183,490,4114,490C4045.7,490,3977,490,3909,490C3840,490,3771,490,3703,490C3634.3,490,3566,490,3497,490C3428.6,490,3360,490,3291,490C3222.9,490,3154,490,3086,490C3017.1,490,2949,490,2880,490C2811.4,490,2743,490,2674,490C2605.7,490,2537,490,2469,490C2400,490,2331,490,2263,490C2194.3,490,2126,490,2057,490C1988.6,490,1920,490,1851,490C1782.9,490,1714,490,1646,490C1577.1,490,1509,490,1440,490C1371.4,490,1303,490,1234,490C1165.7,490,1097,490,1029,490C960,490,891,490,823,490C754.3,490,686,490,617,490C548.6,490,480,490,411,490C342.9,490,274,490,206,490C137.1,490,69,490,34,490L0,490Z"/></svg>