<?xml version="1.0" standalone="no"?>
<svg xmlns:xlink="http://www.w3.org/1999/xlink" id="wave" style="transform:rotate(0deg); transition: 0.3s" viewBox="0 0 1440 490" version="1.1" xmlns="http://www.w3.org/2000/svg"><defs><linearGradient id="sw-gradient-0" x1="0" x2="0" y1="1" y2="0"><stop stop-color="rgba(30.014, 33.788, 36.799, 1)" offset="0%"/><stop stop-color="rgba(32.795, 36.684, 41.352, 1)" offset="100%"/></linearGradient></defs><path style="transform:translate(0, 0px); opacity:1" fill="url(#sw-gradient-0)" d="M0,147L40,130.7C80,114,160,82,240,114.3C320,147,400,245,480,236.8C560,229,640,114,720,114.3C800,114,880,229,960,245C1040,261,1120,180,1200,130.7C1280,82,1360,65,1440,106.2C1520,147,1600,245,1680,285.8C1760,327,1840,310,1920,261.3C2000,212,2080,131,2160,147C2240,163,2320,278,2400,302.2C2480,327,2560,261,2640,204.2C2720,147,2800,98,2880,106.2C2960,114,3040,180,3120,220.5C3200,261,3280,278,3360,236.8C3440,196,3520,98,3600,122.5C3680,147,3760,294,3840,367.5C3920,441,4000,441,4080,367.5C4160,294,4240,147,4320,73.5C4400,0,4480,0,4560,65.3C4640,131,4720,261,4800,302.2C4880,343,4960,294,5040,228.7C5120,163,5200,82,5280,40.8C5360,0,5440,0,5520,49C5600,98,5680,196,5720,245L5760,294L5760,490L5720,490C5680,490,5600,490,5520,490C5440,490,5360,490,5280,490C5200,490,5120,490,5040,490C4960,490,4880,490,4800,490C4720,490,4640,490,4560,490C4480,490,4400,490,4320,490C4240,490,4160,490,4080,490C4000,490,3920,490,3840,490C3760,490,3680,490,3600,490C3520,490,3440,490,3360,490C3280,490,3200,490,3120,490C3040,490,2960,490,2880,490C2800,490,2720,490,2640,490C2560,490,2480,490,2400,490C2320,490,2240,490,2160,490C2080,490,2000,490,1920,490C1840,490,1760,490,1680,490C1600,490,1520,490,1440,490C1360,490,1280,490,1200,490C1120,490,1040,490,960,490C880,490,800,490,720,490C640,490,560,490,480,490C400,490,320,490,240,490C160,490,80,490,40,490L0,490Z"/></svg>